<?xml version="1.0" encoding="UTF-8"?>
<svg id="_レイヤー_2" data-name="レイヤー 2" xmlns="http://www.w3.org/2000/svg" viewBox="0 0 1768.68 227.56">
  <g id="_レイヤー_1-2" data-name="レイヤー 1">
    <g>
      <path d="m159.18,194.1c0,2.33-1.75,5.14-5.24,8.44l-2.33.87-2.04,2.62-5.24,1.46c-.97,1.36-1.94,2.04-2.91,2.04-.2,0-.39-.1-.58-.29h-.87c-4.27,2.13-9.41,3.2-15.42,3.2h-2.33l-7.27-1.46-4.95-2.33-11.06-9.31-2.33-7.86-4.66-3.78c.58-.77.87-2.04.87-3.78,0-1.16-.78-3.1-2.33-5.82l.87-6.98v-1.16c0-2.33-.68-5.33-2.04-9.02l1.75-8.73-3.78,7.57-4.37.58-.58,6.11c-1.56.78-3.4,1.16-5.53,1.16l-3.2,6.98-3.78,4.37c-1.56,1.75-2.91,2.72-4.07,2.91l-.87.58-10.48,10.77h-1.16l-5.53,6.6-5.24,2.7-2.91,3.9-6.69,2.1-9.6,3.9-5.82-2.94c-3.88,0-6.6-1.76-8.15-5.3l-2.62-1.47c0-.59.1-1.37.29-2.36v-2.06l-4.66-4.12,1.16-1.76-3.49-8.24,1.16-1.18v-2.35c-.58-.59-.87-1.08-.87-1.47,0-2.15.22-4.21.65-6.18l.22-7.65-.87-6.18c.58-1.55.87-2.91.87-4.07,0-1.35-.39-2.62-1.16-3.78l3.2-2.33v-3.49l-1.16-9.6,3.2-18.62c0-3.1-.87-7.66-2.62-13.68.58-6.21,4.66-9.6,12.22-10.19l2.33.87,4.07.58,5.24,5.83-2.33,7.58v12.53l.87,9.61-1.75,3.5.87,2.33-2.33,4.66v6.41c0,2.53-.2,5.15-.58,7.87l.58,2.04-.61,4.37.49,3.42.12,4.07c1.55,1.16,2.33,2.62,2.33,4.36,0,1.55-.78,3.1-2.33,4.65v1.16c1.01,3.3,1.52,5.43,1.52,6.39l2.75,2.62c1.22-.77,2.64-1.75,4.26-2.91.61-1.94,2.03-3.2,4.27-3.78v-2.91c1.16,0,3.01-.29,5.53-.87l.58-2.62,4.95-2.04.87-.88c1.35-1.35,3.59-2.62,6.69-3.78v-1.17l5.53-4.08c1.35-3.69,3.78-6.12,7.27-7.28,2.13-2.14,3.59-3.4,4.36-3.79l3.78-4.95v-.87l1.16-.58,2.62-1.17,1.46-4.07,6.11-2.62,1.16-.29,2.04-2.04v-2.62l1.7-.58c.56-3.11,2.08-5.44,4.53-6.99l4.25-9.9,1.63-5.19.6-1.14h1.2l2.1-1.46-1.75-.58c2.13-3.49,3.78-7.17,4.95-11.06l8.44-.29,6.69,5.53,2.91,4.66-3.2,12.51-4.37,5.82-3.49,11.35-2.91,1.75v4.37l-1.75,3.2.87,5.24-2.33,2.04,1.16,9.31.58,13.1h1.46v7.57l4.07,4.95,3.78,2.04.29,1.46c1.35.2,3.01.68,4.95,1.46l7.28.58,4.36-1.16,7.86-3.78c1.55-.77,3.49-1.16,5.82-1.16,5.82,0,8.73,2.52,8.73,7.57Z"/>
      <path d="m257.24,179.26c0,2.14-.77,3.88-2.32,5.24-1.55,2.33-4.06,4.76-7.53,7.27l-2.9,2.04-2.61,3.49-2.61,1.16-4.06,2.62-2.9.29-1.16,1.16c-3.86,1.16-6.86,3.11-8.98,5.82-1.35.97-2.61,1.46-3.77,1.46-.77,0-1.45-.1-2.03-.29-3.29,1.94-7.54,2.91-12.75,2.91-4.45,0-7.34-.39-8.69-1.16l-5.22-2.91-1.74-2.91v-.87c0-2.52-1.1-4.56-3.31-6.11l-1.21-5.82-2.41-2.62-1.51-10.77v-11.06l.87-1.75c-.58-1.16-.87-2.42-.87-3.78.97-8.15,1.46-13.29,1.46-15.42l-2.62-5.24,2.62-4.37.87-7.27-.58-4.95,1.75-4.36-1.75-5.82,3.14-4.07.35-2.62v-24.44l.87-12.51-.87-2.33v-19.5l1.71-17.46c7.96-1.94,11.46-2.91,10.52-2.91,3.03,0,5.49,1.65,7.39,4.95l.57,2.33,4.27,4.37-1.16,6.11v1.16c-.55,3.69-1.22,6.11-2.04,7.27l.87,6.11,1.16,5.53-2.04,6.11c0,3.3-.49,6.31-1.45,9.02,0,.97-.2,2.52-.58,4.66l-.29,1.75,2.33,3.2-.87,3.2c.58,1.55.87,2.62.87,3.2,0,1.16-.49,2.72-1.45,4.66l.58,2.62-1.75,9.31v6.11l-2.04,6.11,1.16,5.53-1.16,12.8.87,1.46-1.46,6.69-.58,8.15c-.39,1.16-.58,1.85-.58,2.04,0,3.3-.1,6.02-.29,8.15l.87,4.07v4.36l1.75,3.78-.29,1.46c1.15.97,2.22,2.52,3.18,4.66h2.61l3.76,1.16,1.74-2.33,2.6-.29c1.16-.39,2.02-.58,2.61-.58h.87c1.93-.39,3.47-1.35,4.63-2.91l1.74-.87c1.35-2.13,3.56-3.59,6.66-4.37.96-.77,2.8-2.33,5.5-4.66,0-2.71,1.64-4.75,4.92-6.11,2.89,0,4.82-.48,5.79-1.46,3.86.58,6.32,1.6,7.38,3.06,1.06,1.46,1.59,4.22,1.59,8.29Z"/>
      <path d="m434.17,194.1c0,2.33-1.75,5.14-5.24,8.44l-2.33.87-2.04,2.62-5.24,1.46c-.97,1.36-1.94,2.04-2.91,2.04-.2,0-.39-.1-.58-.29h-.87c-4.27,2.13-9.41,3.2-15.42,3.2h-2.33l-7.27-1.46-4.95-2.33-11.06-9.31-2.33-7.86-4.66-3.78c.58-.77.87-2.04.87-3.78,0-1.16-.78-3.1-2.33-5.82l.87-6.98v-1.16c0-2.33-.68-5.33-2.04-9.02l1.75-8.73-3.78,7.57-4.37.58-.58,6.11c-1.56.78-3.4,1.16-5.53,1.16l-3.2,6.98-3.78,4.37c-1.56,1.75-2.91,2.72-4.07,2.91l-.87.58-10.48,10.77h-1.16l-5.53,6.6-5.24,2.7-2.91,3.9-6.69,2.1-9.6,3.9-5.82-2.94c-3.88,0-6.6-1.76-8.15-5.3l-2.62-1.47c0-.59.1-1.37.29-2.36v-2.06l-4.66-4.12,1.16-1.76-3.49-8.24,1.16-1.18v-2.35c-.58-.59-.87-1.08-.87-1.47,0-2.15.22-4.21.65-6.18l.22-7.65-.87-6.18c.58-1.55.87-2.91.87-4.07,0-1.35-.39-2.62-1.16-3.78l3.2-2.33v-3.49l-1.16-9.6,3.2-18.62c0-3.1-.87-7.66-2.62-13.68.58-6.21,4.66-9.6,12.22-10.19l2.33.87,4.07.58,5.24,5.83-2.33,7.58v12.53l.87,9.61-1.75,3.5.87,2.33-2.33,4.66v6.41c0,2.53-.2,5.15-.58,7.87l.58,2.04-.61,4.37.49,3.42.12,4.07c1.55,1.16,2.33,2.62,2.33,4.36,0,1.55-.78,3.1-2.33,4.65v1.16c1.01,3.3,1.52,5.43,1.52,6.39l2.75,2.62c1.22-.77,2.64-1.75,4.26-2.91.61-1.94,2.03-3.2,4.27-3.78v-2.91c1.16,0,3.01-.29,5.53-.87l.58-2.62,4.95-2.04.87-.88c1.35-1.35,3.59-2.62,6.69-3.78v-1.17l5.53-4.08c1.35-3.69,3.78-6.12,7.27-7.28,2.13-2.14,3.59-3.4,4.36-3.79l3.78-4.95v-.87l1.16-.58,2.62-1.17,1.46-4.07,6.11-2.62,1.16-.29,2.04-2.04v-2.62l1.7-.58c.56-3.11,2.08-5.44,4.53-6.99l4.25-9.9,1.63-5.19.6-1.14h1.2l2.1-1.46-1.75-.58c2.13-3.49,3.78-7.17,4.95-11.06l8.44-.29,6.69,5.53,2.91,4.66-3.2,12.51-4.37,5.82-3.49,11.35-2.91,1.75v4.37l-1.75,3.2.87,5.24-2.33,2.04,1.16,9.31.58,13.1h1.46v7.57l4.07,4.95,3.78,2.04.29,1.46c1.35.2,3.01.68,4.95,1.46l7.28.58,4.36-1.16,7.86-3.78c1.55-.77,3.49-1.16,5.82-1.16,5.82,0,8.73,2.52,8.73,7.57Z"/>
      <path d="m633.79,165.58l-5.53,5.24-.29,1.75c-.58,3.49-2.23,6.31-4.95,8.44-4.66,8.73-11.16,15.13-19.5,19.21l-4.36,3.49-3.78.58-4.66,3.49-3.2.29-7.27,4.66-4.66-.58-5.24,2.91-4.07-1.75-2.04,1.75-5.53-.87-5.53.87-2.04-1.75-5.82-1.16-8.44-6.4-4.66-5.82c-2.91-3.68-4.37-6.79-4.37-9.31v-.87l-2.91-4.36v-3.78c-.58-2.33-.87-4.46-.87-6.4v-2.04l-1.46-4.95,1.46-3.49-1.16-2.33,3.49-5.53-.87-4.66,2.33-7.57,1.16-1.75,1.16-6.98-.58-1.16,3.49-3.78.58-2.91,2.33-6.69,3.78-8.15,5.24-4.66,1.16-2.62,1.75-3.2.58-2.91,4.66-5.53c1.16-.39,2.52-.77,4.07-1.16.77-3.68,5.62-5.82,14.55-6.4,7.57,1.55,12.41,3.59,14.55,6.11,2.13.39,3.78,1.26,4.95,2.62l6.11.29,4.07,5.24c.94,1.94,1.6,3.87,1.98,5.8l2.26,2.32-.87,4.37c.21,1.36.31,3.5.31,6.41l1.56,1.17v4.37l1.16,9.03c-4.12,4.08-8.83,6.41-14.14,6.99-2.75-5.07-6.19-8.88-10.31-11.42v-9.66l-2.04-3.22.22-2.34-3.02-3.41-1.46-1.08-2.63.87h-3.8c-2.54.58-4.97,2.42-7.31,5.51-2.34,3.1-4.67,6.38-7.01,9.87l-.29,2.9-1.76,1.45v5.22l-3.78,4.06-4.66,12.76.29,3.48-2.33,5.22.87,6.38-1.75.87-.58,8.12.29,1.45,3.51,3.48,1.46,6.09,4.1,1.16.29,2.32,4.92.99,3.78,1c1.35-.77,3.01-1.16,4.94-1.16h2.04c2.33-.97,4.46-1.46,6.4-1.46,1.35-.58,3.1-1.16,5.23-1.75,2.33-3.1,5.62-4.66,9.89-4.66h1.75c.97,0,1.65-.48,2.04-1.46,2.13-3.3,5.52-5.43,10.18-6.4,5.43-4.85,8.53-8.73,9.31-11.64,2.71-1.55,4.46-3.97,5.23-7.27l1.75-1.16.87-6.69c8.92,1.36,13.38,5.82,13.38,13.39v2.33Z"/>
      <path d="m761.83,102.72l-2.33,9.6-10.77,1.46-5.82,3.78-3.78-1.75-4.07,2.27-4.36,1.7-2.91,1.99-.1,1.13-6.05,3.03-4.07,5.31h-2.04c-3.1,3.3-5.33,5.34-6.68,6.11l-4.07,6.69-1.45.58c-.58,1.56-1.26,3.88-2.04,6.98l-4.07,1.45-1.74,3.49-2.33,2.91-.57,4.36-2.33.87v4.37l-.87.87c.58.97,1.26,2.04,2.04,3.2l-4.36,1.75-.58,3.78-2.91,4.95,1.75,3.78-3.78,5.24c.39,1.94.58,3.3.58,4.07v1.16c-.2.58-.29,1.07-.29,1.46l.58,2.62,4.95,5.24-3.78,6.69-3.49,2.62-8.15,4.07-10.77-4.37v-6.69l-1.16-2.62.87-4.37c-.39-3.1-.58-5.43-.58-6.98,0-.58.1-1.35.29-2.33v-2.04l-.29-2.91c-1.36-1.35-2.04-2.91-2.04-4.66,0-1.55.68-3.3,2.04-5.24,0-.97-.2-3.88-.58-8.73l.87-.87-.87-3.78.58-3.49-.58-2.04.87-6.69-1.75-2.91,1.16-3.2-1.16-3.78c.19-1.16.29-2.71.29-4.66,0-2.91-.39-4.85-1.16-5.82l1.16-1.75-1.16-5.24-2.62-3.78,1.46-4.66-1.16-1.75-1.16-6.98v-2.33c-.97-1.16-1.46-2.62-1.46-4.37,0-3.88,4.27-7.17,12.8-9.89l7.27,1.46,1.46,5.53,2.91,3.78-.87,7.86c.58,3.88,1.26,8.15,2.04,12.8l.87,4.66c.19.39.39,1.46.58,3.2,0,1.16-.49,2.43-1.45,3.78l.87,5.82-.58,6.4-1.16,2.91.87,1.16.58,2.91c1.16-1.35,1.84-2.81,2.04-4.36l1.16-4.37c.58-1.16,1.46-2.04,2.62-2.62l1.16-4.37,4.07-2.33.58-3.49,3.2-3.49,2.33-4.36c2.52-2.71,4.95-4.46,7.27-5.24l.58-.87,2.62-4.07,2.91-.58.87-.87,1.16-1.75,3.2-1.75,1.75-2.04,1.75.29,2.33-1.16,1.16-1.75,3.49-1.75,4.95-3.2,6.98-2.33c2.71-.39,4.17-.58,4.37-.58v.29c-.2,0-.29.1-.29.29h.29c.77,0,1.94-.39,3.49-1.16.97-.77,2.33-1.16,4.07-1.16.77,0,2.13.2,4.07.58,5.04.2,7.86,2.52,8.44,6.98Z"/>
      <path d="m856.7,187.11c0,2.33-1.75,5.24-5.24,8.73-.97,3.11-2.43,5.63-4.36,7.57l-1.75.29-3.2,5.53-5.24.87-5.53,3.49-2.91,5.24h-3.2c-2.14.84-3.88,1.34-5.24,1.51l-1.75,2.27h-2.62c-2.52,0-4.95,1.65-7.27,4.95l-4.07-3.49h-3.49c-2.52,0-4.66-.49-6.4-1.46h-4.95l-2.33-1.44c-7.38-1.16-12.03-3.95-13.97-8.37v-.87l-3.49-1.73-1.75-4.9-3.49-2.31v-4.33l-3.49-12.7v-10.38l1.75-4.62v-6.06l1.46-4.62-.29-2.02,2.04-3.46-.58.58c0-1.75.48-3.59,1.45-5.53v-1.46l-.87-6.98c0-3.3,1.46-6.21,4.37-8.73.19-.39.29-.97.29-1.75s-.34-2.37-1.02-4.8c-.68-2.42-1.02-4.12-1.02-5.09,0-2.33.58-4.75,1.75-7.27,1.55,2.33,3.78,3.49,6.69,3.49h.87c.39-.77,1.26-1.65,2.62-2.62,1.55-4.85,3.68-8.92,6.4-12.22l1.16-1.16c0-.77.58-3.01,1.75-6.69h2.33l.58-1.46,2.33-.58c.97-1.55,1.6-2.47,1.89-2.76s2.37-1.5,6.26-3.64c.77-1.35,1.94-2.62,3.49-3.78.77-.39,1.75-.77,2.91-1.16l1.16-1.75c5.24-1.75,8.53-2.62,9.89-2.62,1.55,0,3.01.39,4.37,1.16l1.46-.29,2.04,1.16c2.33,1.75,4.66,3.2,6.98,4.36l4.95,3.78v1.16c4.46,3.49,6.69,8.44,6.69,14.84l-.87,2.91.87,9.6-2.62,1.75-2.91,7.57-5.53,6.11-.29,4.66c-6.21,4.47-11.93,8.05-17.17,10.77-1.75,2.72-4.47,4.07-8.15,4.07h-.87l-5.53,3.49h-4.66l-6.98,2.91-5.24-2.62h-.58c-.39,1.56-.78,3.91-1.16,7.02l-2.33,1.76-.29,3.51-1.75,4.98c.39,4.69.58,7.71.58,9.08l-.97.88c0,2.54-.08,4.39-.25,5.56,0,.2-.08.49-.24.88v.88c0,1.56.77,2.83,2.33,3.81.58,2.35,1.55,3.81,2.91,4.39l2.04,1.76,6.4,1.75v.88l2.33.59h9.89l5.82-.86,2.91-2.02,1.75-.57,2.91-4.31,1.45-.29,7.28-2.3c.77-1.34,2.04-2.49,3.78-3.45l.87-1.44c3.88-.77,6.11-2.78,6.69-6.04,2.71-2.68,6.21-4.03,10.48-4.03h1.16c3.68,4.27,5.53,7.76,5.53,10.48Zm-28.81-83.81c0-.58-.29-1.75-.87-3.49l-1.46-.29-.58.29h-1.16c-.39.2-.78.29-1.16.29-.2,0-.49-.1-.87-.29h-.87l-2.91,2.04-2.62.29-1.46.58-4.95,6.4-3.2,2.33-4.66,8.15-2.62,1.75c-.58,3.3-1.94,6.11-4.07,8.44l-1.16,2.04c2.13-1.35,4.56-2.04,7.28-2.04l2.04-.87.87-2.62,4.07.29,2.33-3.49h1.75l3.2,1.16,1.46-4.37h2.04v-3.2l3.78-.87.87-.87.58-2.62,3.78-5.53c.39-.97.58-2.13.58-3.49Z"/>
      <path d="m990.85,93.12l-2.91,3.78,2.33,6.98-3.78,4.36-1.46,6.11-.87,1.45.58,1.46c0,2.72-.68,4.76-2.04,6.11l-.58.87v1.16c.58,1.36.87,2.62.87,3.78,0,.97-.1,1.65-.29,2.04l.29,1.16-1.16,3.2.87,3.49-2.33,2.33.87,4.07,1.75,2.04-2.62,2.33v4.66l-2.04,4.66,1.46,4.66-1.75,2.33,2.91,2.04-4.07,6.69-.29.87,2.91.58-2.04,6.69v1.16c0,1.36-.1,2.43-.29,3.2l.29.87,4.65.58,3.78,5.82-2.04,4.37,3.2-.29c1.16,2.33,1.84,4.37,2.04,6.11l-4.37,4.37c-1.36,1.36-3.3,2.71-5.82,4.07l-4.95,2.62-1.46-1.45-2.91,1.45-9.02-10.43v-4.92c-1.16-3.86-1.75-7.43-1.75-10.72v-1.74l-1.75-17.09,2.33-12.17-1.75-6.95-4.95,8.15-2.62,7.57-2.33,1.17-4.07,6.44-7.28,6.73-2.04,3.51-6.4,5.56-1.46,3.81-9.31,5.86-9.89,11.13-5.53,1.17-3.78,2.93c-4.85-.2-8.54-2.05-11.06-5.55-8.73-4.28-13.29-10.41-13.68-18.39l1.46-.88-.29-1.75-.29-3.51-1.75-3.79,1.75-4.09.58-6.13,2.04-9.63v-1.17c-.2-.39-.29-.78-.29-1.17,0-.78.19-1.75.58-2.92-.2-.39-.29-1.17-.29-2.34,0-1.36.58-3.6,1.75-6.72l2.04-.87c-1.16-.97-1.75-2.04-1.75-3.21v-3.79c0-2.34,1.16-4.09,3.49-5.26.58-1.95,1.65-3.89,3.2-5.84l-1.45-2.34,3.49-4.36v-1.16c0-3.68,1.26-7.08,3.78-10.19l-.29-5.24,1.16-1.16v-.87c-.2-.39-.29-.68-.29-.87,0-1.16.39-2.13,1.16-2.91v-1.75c.77-1.94,2.81-4.85,6.11-8.73,3.3-3.88,5.72-7.27,7.28-10.19l1.45,1.46,3.2-1.46,1.46-.58,9.6-4.37,22.41,1.16v2.04l6.98,1.46c4.46,0,7.37,1.45,8.73,4.36,0-.58.1-1.26.29-2.04v-1.16l6.11,5.53,5.53,1.16,10.47-2.62,3.78,7.27,4.37,1.75Zm-27.64,15.13l-1.16-2.04-2.33-.58-9.02-7.28-5.82-.87h-4.65l-.58-1.16-2.33,1.16-2.62-1.16h-7.57l.87,1.16-6.69,2.33-1.16,1.46-.87.29c-3.49,2.91-5.92,5.34-7.28,7.28l-2.04,6.99-1.16,2.62,2.91,4.07-4.95,3.79.58,1.16c-2.12,3.69-3.17,7.28-3.17,10.77l-2.33,2.91-.03,5.23-2.33,2.62-.58,2.62-.87.58v4.07l-.87,1.46c0,2.33-.2,4.17-.58,5.53l.58,1.46-2.62,5.52,1.16,1.75-2.04,2.91,2.04,5.52-3.2,4.07.58,5.52v.87l1.16.58,1.46-.29c.97-.97,1.94-1.85,2.91-2.62l-.58-2.33,4.05-.58.87-2.04,17.1-13.99,1.74-.58,2.03-4.95c1.16-.39,2.8-1.16,4.93-2.33l1.9-4.61h2.3s-.87-4.96-.87-4.96l4.07-.58c.39-.77,1.02-1.75,1.89-2.91s1.79-2.23,2.77-3.2l14.84-19.79,2.33-4.36-.29-1.16,2.04-3.2.58-3.2,2.62-2.33.29-3.2Z"/>
      <path d="m1114.81,106.51c0,1.75-1.75,3.4-5.24,4.95-.78.97-2.23,1.85-4.37,2.62-2.72,1.16-4.66,2.14-5.82,2.91l-6.11-2.04c-3.11,2.33-7.08,3.49-11.93,3.49l-3.49-.87-2.62,2.04h-7.86l-4.95,3.49c-2.14-.77-4.17-1.16-6.11-1.16-.58.39-1.94.78-4.07,1.16-.97,0-2.04-.29-3.2-.87l-.87,11.05v18.32l.13,11.05.89,5.24-.14,4.08,4.07,8.73c-.58.59-.87,1.27-.87,2.04,0,1.36,2.13,2.43,6.4,3.2l.58,3.5,2.04.87,3.49,2.33,2.33,1.75c1.94-.39,3.3-.58,4.07-.58,1.75,0,3.49.29,5.24.87.77-.39,2.42-1.75,4.95-4.07,1.75-1.55,3.39-2.33,4.95-2.33h1.75c1.75-3.54,4.85-5.87,9.31-6.98,4.07,0,7.47,1.26,10.19,3.78v2.04c0,6.6-2.33,10.77-6.98,12.51-1.75,4.07-5.43,6.69-11.06,7.86l-3.49,3.2h-3.78l-6.69,1.75c-1.55.39-3.78.58-6.69.58-1.55,0-3.2-.39-4.95-1.16h-3.78l-10.18-5.53-2.62-.87-6.11-8.15-3.49-3.78-6.4-14.55-2.33-13.68.87-3.49-2.62-3.2,1.46-4.07-1.46-6.4,2.04-2.04.58-3.78-.87-3.49.87-5.24-1.46-4.66,1.46-1.46v-4.66l-2.04-.87-5.53,1.16-5.24-3.49h-.87c-5.82,0-8.73-3.15-8.73-9.44v-.89l-3.49-5.61,5.53-5.31,7.28,1.16,3.78-.58,5.53,1.46h6.11v-5.82l-3.78-8.15,3.78-2.04-1.46-4.37.29-9.02-2.33-3.78c-1.36-2.13-2.04-4.07-2.04-5.82,0-2.13.48-3.88,1.46-5.24l.87-4.07,2.33-2.33c5.24-.97,8.73-1.46,10.48-1.46,6.21,0,9.6,2.83,10.19,8.48l-.87,1.46c1.16,1.75,1.75,3.41,1.75,4.97,0,.2-.1.68-.29,1.46l-.58,1.76-.29,2.05,1.16,3.81-.29,1.46.58,4.1-2.62,3.51,1.46,5.85-1.16,7.02,2.33,2.63-2.33,5.27,9.02-1.46,16,1.46,12.8-2.04,4.37.29,1.45-.29h11.35c6.01,0,9.02,2.14,9.02,6.4Z"/>
      <path d="m1218.69,187.11c0,2.33-1.75,5.24-5.24,8.73-.97,3.11-2.43,5.63-4.37,7.57l-1.75.29-3.2,5.53-5.24.87-5.53,3.49-2.91,5.24h-3.2c-2.14.84-3.88,1.34-5.24,1.51l-1.75,2.27h-2.62c-2.52,0-4.95,1.65-7.28,4.95l-4.07-3.49h-3.49c-2.52,0-4.66-.49-6.4-1.46h-4.95l-2.33-1.44c-7.38-1.16-12.03-3.95-13.97-8.37v-.87l-3.49-1.73-1.75-4.9-3.49-2.31v-4.33l-3.49-12.7v-10.38l1.75-4.62v-6.06l1.46-4.62-.29-2.02,2.04-3.46-.58.58c0-1.75.48-3.59,1.46-5.53v-1.46l-.87-6.98c0-3.3,1.46-6.21,4.37-8.73.19-.39.29-.97.29-1.75s-.34-2.37-1.02-4.8c-.68-2.42-1.02-4.12-1.02-5.09,0-2.33.58-4.75,1.75-7.27,1.55,2.33,3.78,3.49,6.69,3.49h.87c.39-.77,1.26-1.65,2.62-2.62,1.55-4.85,3.68-8.92,6.4-12.22l1.16-1.16c0-.77.58-3.01,1.75-6.69h2.33l.58-1.46,2.33-.58c.97-1.55,1.6-2.47,1.89-2.76s2.37-1.5,6.26-3.64c.77-1.35,1.94-2.62,3.49-3.78.77-.39,1.75-.77,2.91-1.16l1.16-1.75c5.24-1.75,8.53-2.62,9.89-2.62,1.55,0,3.01.39,4.37,1.16l1.46-.29,2.04,1.16c2.33,1.75,4.66,3.2,6.98,4.36l4.95,3.78v1.16c4.46,3.49,6.69,8.44,6.69,14.84l-.87,2.91.87,9.6-2.62,1.75-2.91,7.57-5.53,6.11-.29,4.66c-6.21,4.47-11.93,8.05-17.17,10.77-1.75,2.72-4.46,4.07-8.15,4.07h-.87l-5.53,3.49h-4.66l-6.98,2.91-5.24-2.62h-.58c-.39,1.56-.78,3.91-1.16,7.02l-2.33,1.76-.29,3.51-1.75,4.98c.39,4.69.58,7.71.58,9.08l-.97.88c0,2.54-.08,4.39-.25,5.56,0,.2-.08.49-.24.88v.88c0,1.56.77,2.83,2.33,3.81.58,2.35,1.55,3.81,2.91,4.39l2.04,1.76,6.4,1.75v.88l2.33.59h9.89l5.82-.86,2.91-2.02,1.75-.57,2.91-4.31,1.46-.29,7.28-2.3c.77-1.34,2.04-2.49,3.78-3.45l.87-1.44c3.88-.77,6.11-2.78,6.69-6.04,2.71-2.68,6.21-4.03,10.48-4.03h1.16c3.68,4.27,5.53,7.76,5.53,10.48Zm-28.81-83.81c0-.58-.29-1.75-.87-3.49l-1.46-.29-.58.29h-1.16c-.39.2-.78.29-1.16.29-.2,0-.49-.1-.87-.29h-.87l-2.91,2.04-2.62.29-1.46.58-4.95,6.4-3.2,2.33-4.66,8.15-2.62,1.75c-.58,3.3-1.94,6.11-4.07,8.44l-1.16,2.04c2.13-1.35,4.56-2.04,7.27-2.04l2.04-.87.87-2.62,4.07.29,2.33-3.49h1.75l3.2,1.16,1.45-4.37h2.04v-3.2l3.78-.87.87-.87.58-2.62,3.78-5.53c.39-.97.58-2.13.58-3.49Z"/>
      <path d="m1390.38,168.49c0,4.46-.78,7.27-2.33,8.44l-1.46,1.16-1.46,4.07-4.66,1.46c-1.36,3.11-3.4,5.53-6.11,7.27l-2.62.87-3.78,4.07-3.49.87c-1.36,3.49-4.17,5.34-8.44,5.53-.39.58-1.26,1.75-2.62,3.49-2.91,1.94-5.92,3.11-9.02,3.49l-1.45.29-2.04,2.62h-5.82l-4.66,3.49-11.93-8.73-5.53-11.35-.29-14.26-1.16-3.49,3.49-25.61,1.16-1.16c-.58-2.91-.87-5.72-.87-8.44,0-1.75.58-5.33,1.75-10.77l1.46-6.69c-.39-1.16-1.16-2.42-2.33-3.78l1.75-5.53.58-6.69.58-.87c-.78-1.75-1.26-3.68-1.46-5.82.19-.39.39-.92.58-1.6.19-.68.29-1.21.29-1.6-.58-1.75-.87-3.39-.87-4.95,0-4.66,2.62-6.79,7.86-6.4h3.49c2.33-.97,3.78-1.46,4.37-1.46,3.88,0,6.5,2.14,7.86,6.4v1.16c.77,2.33,1.16,4.56,1.16,6.69,0,1.75-.2,3.01-.58,3.78l-2.04,14.55,2.04,4.07c0,3.49-1.16,6.6-3.49,9.31l1.16,3.49-3.78,11.06c-.39,4.85-.87,8.54-1.46,11.06v7.27l-1.75,4.07.29,2.91-.58,6.69.58,5.24,4.36,3.49,3.49-.58.58-.87,2.33.29,3.78-1.16,3.2-3.2,1.16-1.75,2.04-.29.58-1.45.87-1.16,1.75,1.16,2.91-2.91,1.75.29.58-2.04h.58s.84-2.35.84-2.35l2.62-1.16,5.54-2.61c4.47-3.1,8.84-4.65,13.12-4.65h1.16c2.14,1.36,3.59,3.11,4.37,5.24Zm-29.68-154.28c0,2.32-1.56,4.45-4.66,6.38v.58c-3.7,4.45-6.91,6.96-9.63,7.54l-4.37,5.22-2.92,3.77-6.71,1.68-2.9,4.14-4.65,2.36-7.55,6.8-4.64-4.36.87-7.27,3.2-5.24c.19-2.71,1.75-5.04,4.66-6.98v-1.16l1.75-1.16.29-4.36,4.66-1.16v-2.62l3.49-.58c.77-3.88,2.42-6.69,4.95-8.44l.87-.58,1.75-1.75,2.33-6.98c12.8,3.09,19.21,7.83,19.21,14.21Z"/>
      <path d="m1592.04,163.83c0,1.56-1.26,3.59-3.78,6.11l-3.2,4.95-1.16,5.82-2.62.87-.58,1.75c-3.11.97-5.34,3.4-6.69,7.27-2.14,2.72-4.46,4.66-6.98,5.82-.97.97-1.85,1.65-2.62,2.04l-1.46,2.62-2.62.58-7.57,4.07-9.89,1.16-2.62-.58-4.37.87-1.75-2.04c-2.72-1.36-4.66-2.71-5.82-4.07-2.33-.58-4.07-2.42-5.24-5.53-3.3-3.88-4.95-6.98-4.95-9.31v-.87l-2.04-3.49-.58-.58-1.75-5.24-2.62-5.53.58-6.69-2.91-3.78-4.37-25.03c-.58-3.3-.87-6.11-.87-8.44l-.59-1.46-1.47-2.04-2.66,3.47-10.61,10.99-3.83,6.07-1.87,4.16-3.15,4.66-2.29,2.33.29,1.46-4.07,9.03-2.33,2.91-2.91.58-2.62,2.62c0,3.88-1.85,6.41-5.53,7.57l-.58.58c-1.75,4.27-3.69,6.89-5.82,7.86l-2.62,4.08c-4.27,3.88-7.08,6.31-8.44,7.28-.58,1.94-1.65,3.59-3.2,4.95-.39.59-1.07,1.37-2.04,2.33-.58,3.3-3.3,5.63-8.15,6.99l-3.2.87c-3.88-.2-7.08-2.43-9.6-6.69l-4.37-7.28,1.75-6.98-.87-3.78.58-.58.29-3.78-3.2-6.98,2.33-3.49-1.16-3.78,2.26-4.07.65-6.69-.87-1.16,1.75-4.07-.66-2.04-.22-4.66.87-8.73c-.58-1.94-.87-3.2-.87-3.78v-2.33l-.87-2.33.87-9.31v-15.71l5.09-8.73c5.85.97,9.91,2.28,12.17,3.93,2.26,1.65,3.4,4.61,3.4,8.88v2.62l2.33,3.49-1.16,6.11,1.16,11.64-2.04,5.53.87,6.11v4.95l-2.62,3.2,2.62,5.24-2.25,3.2-.37,3.2,1.75,3.2-2.33,6.11-.87,2.62v2.62l1.46,2.91,4.95-4.95c0-2.91.97-4.85,2.91-5.82.19-1.94.97-3.39,2.33-4.36l-.87-.87,3.78-3.49.87-1.16v-2.62l4.66-3.49,1.16-2.91,2.62-1.75,11.35-12.8c-.97,1.16-4.17,4.76-9.6,10.77v.58l.58-2.04,3.78-4.37,2.62-4.95v-2.91l4.37-1.46.58-3.78,1.16-1.16.29-1.46v-2.04l4.07-4.07v-1.46c-.2-.58-.29-.97-.29-1.16,0-3.49,1.94-5.43,5.82-5.82,1.75-3.49,4.37-5.53,7.86-6.11l1.75-2.62.58-.58c1.75-2.52,4.36-4.27,7.86-5.24l2.62-3.2h6.98l3.49,4.07,3.2,1.75.29.87,2.04.58.58,6.11,4.95,2.91-2.04,6.4,3.2,6.98v8.15l2.33,11.06.58,10.48,2.62,6.11,1.75,7.57c1.16,1.16,2.04,2.81,2.62,4.95l5.24,1.46v5.82l2.91,3.2v.87l1.16.29,1.16,1.75,1.16-1.46c-.39,0,.09.1,1.46.29,2.13,0,4.36-1.94,6.69-5.83l3.51-.78.87-1.48c.58-1.58,1.74-2.76,3.49-3.55l2.04.29,1.16-1.16.29-1.46.87-1.16c1.94-1.35,3.2-3.39,3.78-6.11l3.2-3.49.58-2.62,2.04-4.66,5.52-2.04,7.85,2.62,2.62,8.44c0,.2.1.39.29.58v.87Z"/>
      <path d="m1709.31,165.58l-5.53,5.24-.29,1.75c-.58,3.49-2.23,6.31-4.95,8.44-4.66,8.73-11.16,15.13-19.5,19.21l-4.37,3.49-3.78.58-4.66,3.49-3.2.29-7.28,4.66-4.66-.58-5.24,2.91-4.07-1.75-2.04,1.75-5.53-.87-5.53.87-2.04-1.75-5.82-1.16-8.44-6.4-4.66-5.82c-2.91-3.68-4.37-6.79-4.37-9.31v-.87l-2.91-4.36v-3.78c-.58-2.33-.87-4.46-.87-6.4v-2.04l-1.46-4.95,1.46-3.49-1.16-2.33,3.49-5.53-.87-4.66,2.33-7.57,1.16-1.75,1.16-6.98-.58-1.16,3.49-3.78.58-2.91,2.33-6.69,3.78-8.15,5.24-4.66,1.16-2.62,1.75-3.2.58-2.91,4.66-5.53c1.16-.39,2.52-.77,4.07-1.16.77-3.68,5.62-5.82,14.55-6.4,7.57,1.55,12.41,3.59,14.55,6.11,2.13.39,3.78,1.26,4.95,2.62l6.11.29,4.07,5.24c.94,1.94,1.6,3.87,1.98,5.8l2.26,2.32-.87,4.37c.21,1.36.31,3.5.31,6.41l1.56,1.17v4.37l1.16,9.03c-4.12,4.08-8.83,6.41-14.14,6.99-2.75-5.07-6.19-8.88-10.31-11.42v-9.66l-2.04-3.22.22-2.34-3.02-3.41-1.46-1.08-2.63.87h-3.8c-2.54.58-4.97,2.42-7.31,5.51-2.34,3.1-4.67,6.38-7.01,9.87l-.29,2.9-1.75,1.45v5.22l-3.78,4.06-4.66,12.76.29,3.48-2.33,5.22.87,6.38-1.75.87-.58,8.12.29,1.45,3.51,3.48,1.46,6.09,4.1,1.16.29,2.32,4.92.99,3.78,1c1.36-.77,3.01-1.16,4.94-1.16h2.04c2.33-.97,4.46-1.46,6.4-1.46,1.35-.58,3.1-1.16,5.23-1.75,2.33-3.1,5.62-4.66,9.89-4.66h1.75c.97,0,1.65-.48,2.04-1.46,2.13-3.3,5.52-5.43,10.18-6.4,5.43-4.85,8.54-8.73,9.31-11.64,2.71-1.55,4.46-3.97,5.23-7.27l1.75-1.16.87-6.69c8.92,1.36,13.38,5.82,13.38,13.39v2.33Z"/>
      <path d="m1768.68,203.7l-2.04.87v2.04l-3.2,2.33-2.62,3.49-5.53.29-1.75.29c-.78.39-1.94.58-3.49.58-1.94,0-3.98-.58-6.11-1.75-.78-.2-1.75-.63-2.91-1.31-1.16-.68-2.04-1.89-2.62-3.64l-2.33-1.75-1.16-.29v-8.15c0-3.1,2.33-5.62,6.98-7.57,1.55-1.35,3.78-3,6.69-4.95l4.95,1.46.87.87.87-.87,1.75,1.16h1.46c2.33,0,3.97.78,4.95,2.33l2.04,3.78,3.2,4.07-.58,4.07.58,2.62Z"/>
    </g>
  </g>
</svg>